<?xml version="1.0" encoding="UTF-8" standalone="no"?>
<!DOCTYPE svg PUBLIC "-//W3C//DTD SVG 1.1//EN" "http://www.w3.org/Graphics/SVG/1.1/DTD/svg11.dtd">
<svg width="100%" height="100%" viewBox="0 0 98 29" version="1.1" xmlns="http://www.w3.org/2000/svg" xmlns:xlink="http://www.w3.org/1999/xlink" xml:space="preserve" style="fill-rule:evenodd;clip-rule:evenodd;stroke-linejoin:round;stroke-miterlimit:1.41421;">
    <g transform="matrix(1,0,0,1,-171.755,-165.461)">
        <g transform="matrix(2.83592,0,0,2.83592,-312.331,-304.21)">
            <path d="M171.286,174.669C170.894,174.097 170.698,173.307 170.698,172.299L170.698,168.867C170.698,167.803 170.89,166.995 171.274,166.443C171.658,165.891 172.338,165.615 173.314,165.615C174.186,165.615 174.812,165.851 175.192,166.323C175.572,166.795 175.762,167.491 175.762,168.411L175.762,169.179L174.478,169.179L174.478,168.495C174.478,168.047 174.458,167.703 174.418,167.463C174.378,167.223 174.276,167.031 174.112,166.887C173.948,166.743 173.686,166.671 173.326,166.671C172.958,166.671 172.684,166.749 172.504,166.905C172.324,167.061 172.206,167.277 172.15,167.553C172.094,167.829 172.066,168.199 172.066,168.663L172.066,172.515C172.066,173.011 172.106,173.399 172.186,173.679C172.266,173.959 172.396,174.159 172.576,174.279C172.756,174.399 173.006,174.459 173.326,174.459C173.67,174.459 173.926,174.383 174.094,174.231C174.262,174.079 174.368,173.871 174.412,173.607C174.456,173.343 174.478,172.983 174.478,172.527L174.478,171.807L175.762,171.807L175.762,172.527C175.762,173.495 175.58,174.237 175.216,174.753C174.852,175.269 174.218,175.527 173.314,175.527C172.354,175.527 171.678,175.241 171.286,174.669Z" style="fill:white;fill-rule:nonzero;"/>
            <path d="M177.418,165.699L178.774,165.699L178.774,169.899L181.27,169.899L181.27,165.699L182.626,165.699L182.626,175.419L181.27,175.419L181.27,170.871L178.774,170.871L178.774,175.419L177.418,175.419L177.418,165.699Z" style="fill:white;fill-rule:nonzero;"/>
            <rect x="184.582" y="165.699" width="1.332" height="9.72" style="fill:white;fill-rule:nonzero;"/>
            <path d="M187.846,165.699L190.258,165.699C191.098,165.699 191.708,165.927 192.088,166.383C192.468,166.839 192.658,167.507 192.658,168.387C192.658,169.179 192.454,169.795 192.046,170.235C191.638,170.675 191.046,170.895 190.27,170.895L189.202,170.895L189.202,175.419L187.846,175.419L187.846,165.699ZM189.826,169.923C190.226,169.923 190.536,169.879 190.756,169.791C190.976,169.703 191.134,169.551 191.23,169.335C191.326,169.119 191.374,168.807 191.374,168.399C191.374,167.903 191.338,167.539 191.266,167.307C191.194,167.075 191.052,166.911 190.84,166.815C190.628,166.719 190.294,166.671 189.838,166.671L189.202,166.671L189.202,169.923L189.826,169.923Z" style="fill:white;fill-rule:nonzero;"/>
            <path d="M194.392,174.771C193.964,174.267 193.726,173.575 193.678,172.695L194.878,172.371C194.918,172.995 195.04,173.499 195.244,173.883C195.448,174.267 195.786,174.459 196.258,174.459C196.61,174.459 196.876,174.361 197.056,174.165C197.236,173.969 197.326,173.687 197.326,173.319C197.326,172.927 197.242,172.601 197.074,172.341C196.906,172.081 196.638,171.783 196.27,171.447L194.638,170.007C194.31,169.711 194.072,169.397 193.924,169.065C193.776,168.733 193.702,168.331 193.702,167.859C193.702,167.139 193.91,166.585 194.326,166.197C194.742,165.809 195.314,165.615 196.042,165.615C196.802,165.615 197.37,165.819 197.746,166.227C198.122,166.635 198.35,167.267 198.43,168.123L197.278,168.435C197.238,167.883 197.134,167.449 196.966,167.133C196.798,166.817 196.502,166.659 196.078,166.659C195.302,166.659 194.914,167.015 194.914,167.727C194.914,168.015 194.962,168.253 195.058,168.441C195.154,168.629 195.318,168.831 195.55,169.047L197.194,170.487C197.618,170.879 197.956,171.293 198.208,171.729C198.46,172.165 198.586,172.659 198.586,173.211C198.586,173.923 198.37,174.487 197.938,174.903C197.506,175.319 196.946,175.527 196.258,175.527C195.442,175.527 194.82,175.275 194.392,174.771Z" style="fill:white;fill-rule:nonzero;"/>
            <path d="M201.538,165.699L202.846,165.699L204.922,175.419L203.638,175.419L203.194,172.971L201.214,172.971L200.746,175.419L199.474,175.419L201.538,165.699ZM203.014,171.999L202.198,167.619L201.394,171.999L203.014,171.999Z" style="fill:white;fill-rule:nonzero;"/>
        </g>
    </g>
</svg>
