<?xml version="1.0" encoding="UTF-8" standalone="no"?>
<!DOCTYPE svg PUBLIC "-//W3C//DTD SVG 1.1//EN" "http://www.w3.org/Graphics/SVG/1.1/DTD/svg11.dtd">
<svg width="100%" height="100%" viewBox="0 0 451 90" version="1.1" xmlns="http://www.w3.org/2000/svg" xmlns:xlink="http://www.w3.org/1999/xlink" xml:space="preserve" style="fill-rule:evenodd;clip-rule:evenodd;stroke-linejoin:round;stroke-miterlimit:1.41421;">
    <g id="Artboard1" transform="matrix(1,0,0,0.884931,0,0)">
        <rect x="0" y="0" width="450.165" height="101.703" style="fill:none;"/>
        <clipPath id="_clip1">
            <rect x="0" y="0" width="450.165" height="101.703"/>
        </clipPath>
        <g clip-path="url(#_clip1)">
            <g transform="matrix(1,0,0,1.13003,-376.629,-281.726)">
                <g>
                    <g transform="matrix(4.16667,0,0,4.16667,-892.167,0)">
                        <path d="M306.46,66.5L306.46,61.083L304.511,61.083L304.511,59.834L309.828,59.834L309.828,61.083L307.889,61.083L307.889,66.5L306.46,66.5Z" style="fill:white;fill-rule:nonzero;"/>
                    </g>
                    <g transform="matrix(4.16667,0,0,4.16667,-892.167,0)">
                        <path d="M313.458,64.082C313.458,63.332 313.009,62.682 312.219,62.682C311.43,62.682 310.989,63.332 310.989,64.082C310.989,64.841 311.43,65.491 312.219,65.491C313.009,65.491 313.458,64.841 313.458,64.082ZM309.67,64.082C309.67,62.712 310.63,61.553 312.219,61.553C313.818,61.553 314.777,62.712 314.777,64.082C314.777,65.461 313.818,66.621 312.219,66.621C310.63,66.621 309.67,65.461 309.67,64.082Z" style="fill:white;fill-rule:nonzero;"/>
                    </g>
                    <g transform="matrix(4.16667,0,0,4.16667,-892.167,0)">
                        <path d="M324.259,62.563C323.47,62.563 323.13,63.153 323.069,63.631L325.448,63.631C325.418,63.172 325.098,62.563 324.259,62.563ZM321.76,64.082C321.76,62.682 322.79,61.553 324.259,61.553C325.698,61.553 326.678,62.633 326.678,64.211L326.678,64.492L323.09,64.492C323.17,65.101 323.659,65.611 324.478,65.611C324.889,65.611 325.458,65.431 325.767,65.131L326.328,65.951C325.848,66.391 325.089,66.621 324.339,66.621C322.87,66.621 321.76,65.631 321.76,64.082Z" style="fill:white;fill-rule:nonzero;"/>
                    </g>
                    <g transform="matrix(4.16667,0,0,4.16667,-892.167,0)">
                        <path d="M328.1,65.301L328.1,62.783L327.301,62.783L327.301,61.673L328.1,61.673L328.1,60.354L329.38,60.354L329.38,61.673L330.359,61.673L330.359,62.783L329.38,62.783L329.38,64.961C329.38,65.261 329.539,65.491 329.819,65.491C330.009,65.491 330.189,65.42 330.259,65.351L330.529,66.311C330.339,66.481 329.999,66.621 329.47,66.621C328.58,66.621 328.1,66.161 328.1,65.301Z" style="fill:white;fill-rule:nonzero;"/>
                    </g>
                    <g transform="matrix(4.16667,0,0,4.16667,-892.167,0)">
                        <path d="M334.748,66.5L334.748,63.562C334.748,62.893 334.398,62.682 333.848,62.682C333.359,62.682 332.97,62.962 332.75,63.252L332.75,66.5L331.48,66.5L331.48,59.834L332.75,59.834L332.75,62.303C333.059,61.933 333.659,61.553 334.448,61.553C335.508,61.553 336.017,62.133 336.017,63.073L336.017,66.5L334.748,66.5Z" style="fill:white;fill-rule:nonzero;"/>
                    </g>
                    <g transform="matrix(4.16667,0,0,4.16667,-892.167,0)">
                        <path d="M339.719,62.563C338.93,62.563 338.59,63.153 338.529,63.631L340.908,63.631C340.878,63.172 340.558,62.563 339.719,62.563ZM337.221,64.082C337.221,62.682 338.25,61.553 339.719,61.553C341.158,61.553 342.138,62.633 342.138,64.211L342.138,64.492L338.55,64.492C338.63,65.101 339.119,65.611 339.938,65.611C340.348,65.611 340.918,65.431 341.227,65.131L341.788,65.951C341.307,66.391 340.549,66.621 339.799,66.621C338.33,66.621 337.221,65.631 337.221,64.082Z" style="fill:white;fill-rule:nonzero;"/>
                    </g>
                    <g transform="matrix(4.16667,0,0,4.16667,-892.167,0)">
                        <path d="M343.31,66.5L343.31,61.673L344.58,61.673L344.58,62.332C344.92,61.903 345.519,61.553 346.119,61.553L346.119,62.792C346.029,62.772 345.909,62.762 345.768,62.762C345.349,62.762 344.789,63.002 344.58,63.312L344.58,66.5L343.31,66.5Z" style="fill:white;fill-rule:nonzero;"/>
                    </g>
                </g>
                <g transform="matrix(4.16667,0,0,4.16667,-892.167,0)">
                    <path d="M319.278,64.791L319.278,63.233C319.068,62.913 318.609,62.682 318.189,62.682C317.47,62.682 316.97,63.182 316.97,64.012C316.97,64.841 317.47,65.341 318.189,65.341C318.609,65.341 319.068,65.101 319.278,64.791ZM315.87,67.74L316.44,66.821C316.83,67.25 317.34,67.42 317.949,67.42C318.558,67.42 319.278,67.15 319.278,66.201L319.278,65.711C318.898,66.19 318.379,66.471 317.789,66.471C316.58,66.471 315.66,65.622 315.66,64.012C315.66,62.432 316.57,61.553 317.789,61.553C318.369,61.553 318.889,61.803 319.278,62.293L319.278,61.673L320.557,61.673L320.557,66.17C320.557,68.01 319.139,68.459 317.949,68.459C317.12,68.459 316.48,68.27 315.87,67.74Z" style="fill:white;fill-rule:nonzero;"/>
                </g>
            </g>
            <g transform="matrix(1,0,0,1.13003,-483.019,-242.052)">
                <g>
                    <g transform="matrix(4.16667,0,0,4.16667,-892.167,0)">
                        <path d="M354.207,66.5L353.187,63.212L352.168,66.5L350.808,66.5L349.34,61.673L350.659,61.673L351.558,64.921L352.618,61.673L353.747,61.673L354.806,64.921L355.706,61.673L357.025,61.673L355.556,66.5L354.207,66.5Z" style="fill:white;fill-rule:nonzero;"/>
                    </g>
                    <g transform="matrix(4.16667,0,0,4.16667,-892.167,0)">
                        <path d="M357.91,66.5L357.91,61.673L359.18,61.673L359.18,66.5L357.91,66.5ZM357.78,60.394C357.78,59.974 358.13,59.644 358.54,59.644C358.959,59.644 359.299,59.974 359.299,60.394C359.299,60.813 358.959,61.153 358.54,61.153C358.13,61.153 357.78,60.813 357.78,60.394Z" style="fill:white;fill-rule:nonzero;"/>
                    </g>
                    <g transform="matrix(4.16667,0,0,4.16667,-892.167,0)">
                        <path d="M360.939,65.301L360.939,62.783L360.139,62.783L360.139,61.673L360.939,61.673L360.939,60.354L362.219,60.354L362.219,61.673L363.198,61.673L363.198,62.783L362.219,62.783L362.219,64.961C362.219,65.261 362.378,65.491 362.658,65.491C362.848,65.491 363.028,65.42 363.098,65.351L363.368,66.311C363.178,66.481 362.838,66.621 362.308,66.621C361.419,66.621 360.939,66.161 360.939,65.301Z" style="fill:white;fill-rule:nonzero;"/>
                    </g>
                    <g transform="matrix(4.16667,0,0,4.16667,-892.167,0)">
                        <path d="M367.587,66.5L367.587,63.562C367.587,62.893 367.237,62.682 366.687,62.682C366.198,62.682 365.808,62.962 365.589,63.252L365.589,66.5L364.319,66.5L364.319,59.834L365.589,59.834L365.589,62.303C365.898,61.933 366.498,61.553 367.287,61.553C368.347,61.553 368.856,62.133 368.856,63.073L368.856,66.5L367.587,66.5Z" style="fill:white;fill-rule:nonzero;"/>
                    </g>
                </g>
            </g>
            <g transform="matrix(4.16667,0,0,4.70847,-1089.42,-325.924)">
                <path d="M352.83,70.713L349.379,70.713L346.534,77.936L343.825,70.79L340.364,70.79L338.091,84.211L341.571,84.211L342.719,76.485L344.916,82.046L345.747,84.223L347.136,84.223L350.375,76.408L351.361,84.223L354.842,84.223L352.83,70.713Z" style="fill:white;"/>
            </g>
            <g transform="matrix(4.16667,0,0,4.70847,-1089.42,-325.924)">
                <path d="M334.809,70.745C333.671,70.745 332.747,71.623 332.747,72.705L332.747,77.404L332.747,77.331L332.747,82.212C332.747,83.295 333.671,84.172 334.809,84.172C335.947,84.172 336.871,83.295 336.871,82.212L336.871,77.331L336.871,77.404L336.871,72.705C336.871,71.623 335.947,70.745 334.809,70.745Z" style="fill:white;"/>
            </g>
            <g transform="matrix(4.16667,0,0,4.70847,-1089.42,-325.924)">
                <path d="M364.45,70.782L364.452,70.777L360.647,70.78L360.646,70.78L355.496,84.201L359.178,84.201L360.095,81.867L364.912,81.867L365.778,84.201L369.5,84.201L364.45,70.782Z" style="fill:white;"/>
            </g>
            <g transform="matrix(4.16667,0,0,4.70847,-1089.42,-325.924)">
                <path d="M313.455,70.814L313.456,70.809L309.651,70.812L304.5,84.233L308.182,84.233L308.182,84.232L308.182,84.233L309.099,81.899L313.917,81.899L314.782,84.233L318.504,84.233L313.455,70.814Z" style="fill:white;"/>
            </g>
            <g transform="matrix(4.16667,0,0,4.70847,-1089.42,-325.924)">
                <path d="M329.392,76.748L329.386,76.748L324.867,76.748L324.867,79.276L327.604,79.276C327.509,79.908 327.299,80.385 326.973,80.71C326.475,81.19 325.804,81.439 324.963,81.439C324.006,81.439 323.259,81.131 322.685,80.539C321.92,79.735 321.537,78.719 321.537,77.514C321.537,76.94 321.651,76.367 321.862,75.829C322.417,74.356 323.431,73.61 324.867,73.61C325.575,73.61 326.17,73.82 326.685,74.222C327.05,74.528 327.355,74.968 327.624,75.543L330.763,74.259C330.227,73.188 329.596,72.385 328.848,71.829C327.797,71.064 326.532,70.68 325.02,70.68C322.762,70.68 321.019,71.408 319.755,72.843C318.646,74.107 318.092,75.657 318.092,77.514C318.092,79.199 318.569,80.634 319.508,81.841C320.77,83.429 322.551,84.234 324.906,84.234C325.496,84.234 326.055,84.176 326.581,84.058L326.582,84.057C327.334,83.89 328.018,83.604 328.639,83.199C329.728,82.49 330.514,81.457 330.993,80.136C331.3,79.254 331.452,78.126 331.452,76.748L329.392,76.748Z" style="fill:white;"/>
            </g>
        </g>
    </g>
</svg>
